<svg class="ldi-2ea03a" width="200px"  height="200px"  xmlns="http://www.w3.org/2000/svg" xmlns:xlink="http://www.w3.org/1999/xlink" viewBox="0 0 100 100" preserveAspectRatio="xMidYMid" style="background: none;"><!--?xml version="1.0" encoding="utf-8"?--><!--Generator: Adobe Illustrator 21.0.0, SVG Export Plug-In . SVG Version: 6.00 Build 0)--><svg version="1.1" id="Layer_1" xmlns="http://www.w3.org/2000/svg" xmlns:xlink="http://www.w3.org/1999/xlink" x="0px" y="0px" viewBox="0 0 100 100" style="transform-origin: 50px 50px 0px;" xml:space="preserve"><g style="transform-origin: 50px 50px 0px; transform: scale(0.6);"><g style="transform-origin: 50px 50px 0px;"><style type="text/css" class="ld ld-spin" style="transform-origin: 50px 50px 0px; animation-duration: 1s; animation-delay: -1s;">.st0{fill:#F4E6C8;} .st1{opacity:0.8;fill:#849B87;} .st2{fill:#D65A62;} .st3{fill:#E15C64;} .st4{fill:#F47E5F;} .st5{fill:#F7B26A;} .st6{fill:#FEE8A2;} .st7{fill:#ACBD81;} .st8{fill:#F5E169;} .st9{fill:#F0AF6B;} .st10{fill:#EA7C60;} .st11{fill:#A8B980;} .st12{fill:#829985;} .st13{fill:#798AAE;} .st14{fill:#8672A7;} .st15{fill:#CC5960;} .st16{fill:#E17A5F;} .st17{fill:#849B87;} .st18{opacity:0.8;fill:#E15C64;} .st19{opacity:0.8;fill:#F7B26A;} .st20{fill:#79A5B5;} .st21{opacity:0.8;fill:#79A5B4;} .st22{fill:#666766;}</style><g style="transform-origin: 50px 50px 0px;"><g class="ld ld-spin" style="transform-origin: 50px 50px 0px; animation-duration: 1s; animation-delay: -0.95s;"><path class="st5" d="M50,92.5c-9,0-17.7-2.8-25-8.1l8.8-12.1c4.7,3.4,10.3,5.3,16.2,5.3s11.5-1.8,16.2-5.3L75,84.4 C67.7,89.7,59,92.5,50,92.5z" fill="#1d3f72" style="fill: rgb(29, 63, 114);"></path></g></g><g style="transform-origin: 50px 50px 0px;"><g class="ld ld-spin" style="transform-origin: 50px 50px 0px; animation-duration: 1s; animation-delay: -0.9s;"><path class="st7" d="M75,84.4l-8.8-12.1c7.1-5.2,11.4-13.5,11.4-22.3c0-2.9-0.5-5.8-1.3-8.5l14.2-4.6c1.4,4.2,2.1,8.7,2.1,13.1 C92.5,63.5,86,76.4,75,84.4z" fill="#5699d2" style="fill: rgb(86, 153, 210);"></path></g></g><g style="transform-origin: 50px 50px 0px;"><g class="ld ld-spin" style="transform-origin: 50px 50px 0px; animation-duration: 1s; animation-delay: -0.85s;"><path class="st3" d="M23.8,41.5L9.6,36.9C15.3,19.3,31.5,7.5,50,7.5v14.9C38,22.4,27.5,30.1,23.8,41.5z" fill="#d8ebf9" style="fill: rgb(216, 235, 249);"></path></g></g><g style="transform-origin: 50px 50px 0px;"><g class="ld ld-spin" style="transform-origin: 50px 50px 0px; animation-duration: 1s; animation-delay: -0.8s;"><path class="st4" d="M25,84.4C14,76.4,7.5,63.5,7.5,50c0-4.5,0.7-8.9,2.1-13.1l14.2,4.6c-0.9,2.8-1.3,5.6-1.3,8.5 c0,8.8,4.2,17.1,11.4,22.3L25,84.4z" fill="#71c2cc" style="fill: rgb(113, 194, 204);"></path></g></g><g style="transform-origin: 50px 50px 0px;"><g class="ld ld-spin" style="transform-origin: 50px 50px 0px; animation-duration: 1s; animation-delay: -0.75s;"><path class="st17" d="M76.2,41.5c-3.7-11.4-14.2-19-26.2-19V7.5c18.5,0,34.7,11.8,40.4,29.4L76.2,41.5z" fill="#4996a2" style="fill: rgb(73, 150, 162);"></path></g></g><metadata xmlns:d="https://loading.io/stock/" class="ld ld-spin" style="transform-origin: 50px 50px 0px; animation-duration: 1s; animation-delay: -0.7s;">
<d:name class="ld ld-spin" style="transform-origin: 50px 50px 0px; animation-duration: 1s; animation-delay: -0.65s;">pie</d:name>
<d:tags class="ld ld-spin" style="transform-origin: 50px 50px 0px; animation-duration: 1s; animation-delay: -0.6s;">chart,donut,percent,proportion,ratio,ring,pie,spinner</d:tags>
<d:license class="ld ld-spin" style="transform-origin: 50px 50px 0px; animation-duration: 1s; animation-delay: -0.55s;">cc-by</d:license>
<d:slug class="ld ld-spin" style="transform-origin: 50px 50px 0px; animation-duration: 1s; animation-delay: -0.5s;">2ea03a</d:slug>
</metadata></g></g><style type="text/css" class="ld ld-spin" style="transform-origin: 50px 50px 0px; animation-duration: 1s; animation-delay: -0.45s;">path,ellipse,circle,rect,polygon,polyline,line { stroke-width: 0; }@keyframes ld-spin {
  0% {
    -webkit-transform: rotate(0);
    transform: rotate(0);
    animation-timing-function: cubic-bezier(0.55, 0.055, 0.675, 0.19);
  }
  50% {
    -webkit-transform: rotate(180deg);
    transform: rotate(180deg);
    animation-timing-function: cubic-bezier(0.215, 0.61, 0.355, 1);
  }
  100% {
    -webkit-transform: rotate(360deg);
    transform: rotate(360deg);
  }
}
@-webkit-keyframes ld-spin {
  0% {
    -webkit-transform: rotate(0);
    transform: rotate(0);
    animation-timing-function: cubic-bezier(0.55, 0.055, 0.675, 0.19);
  }
  50% {
    -webkit-transform: rotate(180deg);
    transform: rotate(180deg);
    animation-timing-function: cubic-bezier(0.215, 0.61, 0.355, 1);
  }
  100% {
    -webkit-transform: rotate(360deg);
    transform: rotate(360deg);
  }
}
.ld.ld-spin {
  -webkit-animation: ld-spin 1s infinite;
  animation: ld-spin 1s infinite;
}
</style></svg></svg>